<?xml version="1.0" encoding="UTF-8" standalone="no" ?>
<!DOCTYPE svg PUBLIC "-//W3C//DTD SVG 1.1//EN" "http://www.w3.org/Graphics/SVG/1.1/DTD/svg11.dtd">
<svg xmlns="http://www.w3.org/2000/svg" xmlns:xlink="http://www.w3.org/1999/xlink" version="1.1" width="1280" height="1024" viewBox="0 0 1280 1024" xml:space="preserve">
<desc>Created with Fabric.js 5.3.0</desc>
<defs>
</defs>
<g transform="matrix(1 0 0 1 640 512)" id="background-logo"  >
<rect style="stroke: none; stroke-width: 0; stroke-dasharray: none; stroke-linecap: butt; stroke-dashoffset: 0; stroke-linejoin: miter; stroke-miterlimit: 4; fill: rgb(36,34,35); fill-rule: nonzero; opacity: 1;"  paint-order="stroke"  x="-640" y="-512" rx="0" ry="0" width="1280" height="1024" />
</g>
<g transform="matrix(1.9211538461538462 0 0 1.9211538461538462 640 404.64251821068467)" id="logo-logo"  >
<g style=""  paint-order="stroke"   >
		<g transform="matrix(1.0479628529701372 0 0 1.0479628529701372 0 0)"  >
<g style=""  paint-order="stroke"   >
		<g transform="matrix(1 0 0 1 -0.11969994903330416 -23.74590430970119)"  >
<path style="stroke: none; stroke-width: 1; stroke-dasharray: none; stroke-linecap: butt; stroke-dashoffset: 0; stroke-linejoin: miter; stroke-miterlimit: 4; fill: rgb(206,155,80); fill-rule: nonzero; opacity: 1;"  paint-order="stroke"  transform=" translate(-75.93921132918841, -76.25076959585797)" d="M 76 21.56 C 53.874515931131924 21.535726278244127 33.9141503695673 34.84511595434376 25.43026938217561 55.27943507407653 C 16.946388394783916 75.71375419380931 21.610611003009268 99.24673263603974 37.24711111846662 114.90040628265078 C 52.88361123392397 130.5540799292618 76.41145560676489 135.2441317486919 96.85507512508362 126.78268651247366 C 117.29869464340234 118.3212412762554 130.6299866847345 98.37549738412955 130.63 76.24999999999996 C 130.6406121676492 61.752454291830816 124.89029140802434 47.844766384012615 114.64460373209505 37.58782589350241 C 104.39891605616577 27.33088540299221 90.49754862279737 21.5653017150791 76 21.560000000000002 Z" stroke-linecap="round" />
</g>
		<g transform="matrix(1 0 0 1 -0.11976661770458463 -23.74584269060658)"  >
<path style="stroke: none; stroke-width: 1; stroke-dasharray: none; stroke-linecap: butt; stroke-dashoffset: 0; stroke-linejoin: miter; stroke-miterlimit: 4; fill: rgb(206,155,80); fill-rule: nonzero; opacity: 1;"  paint-order="stroke"  transform=" translate(-75.93914466051714, -76.25083121495257)" d="M 76 17.5 C 52.2323980978201 17.475726691784953 30.791608702444293 31.77430463798178 21.679317079530563 53.725742649031844 C 12.567025456616832 75.67718066008192 17.578605233572745 100.95643795375119 34.376257988495965 117.77126329625825 C 51.173910743419185 134.58608863876532 76.4480340177247 139.6234960965291 98.40877149159046 130.53363916817509 C 120.36950896545622 121.44378223982108 134.689987605116 100.01761429706067 134.69 76.24999999999999 C 134.6734933466684 43.83352976955647 108.41643644141813 17.54962973235331 75.99999999999999 17.5 Z M 76 134.06 C 52.606733761763486 134.08832081941128 31.501356135109603 120.01781796060675 22.53044425057 98.41299332994485 C 13.559532366030396 76.80816869928296 18.49090586035871 51.926497314049925 35.02386439403389 35.3763616805995 C 51.55682292770908 18.826226047149078 76.43336005438147 13.86901755359338 98.04748862274938 22.817489690885324 C 119.6616171911173 31.765961828177268 133.7540287377536 52.85671696552407 133.75 76.25000000000003 C 133.72799401659228 108.1450445575251 107.89500450952448 134.00487353421062 76 134.06 Z" stroke-linecap="round" />
</g>
		<g transform="matrix(1 0 0 1 0 0)"  >
<path style="stroke: none; stroke-width: 1; stroke-dasharray: none; stroke-linecap: butt; stroke-dashoffset: 0; stroke-linejoin: miter; stroke-miterlimit: 4; fill: rgb(206,155,80); fill-rule: nonzero; opacity: 1;"  paint-order="stroke"  transform=" translate(-76.05891127822173, -99.99667390555916)" d="M 146.48 86.41 C 146.91 83.41 152.01999999999998 78.71 152 75.69 C 151.98000000000002 72.67 146.79 68.03 146.32 65.06 C 145.85 62.09 149.32 56.06 148.43 53.18 C 147.54000000000002 50.3 141.20000000000002 47.4 139.87 44.7 C 138.54 42.00000000000001 140.12 35.21 138.4 32.7 C 136.68 30.190000000000005 129.78 29.310000000000002 127.72 27.120000000000005 C 125.66 24.930000000000007 125.16 17.980000000000004 122.78999999999999 16.120000000000005 C 120.41999999999999 14.260000000000005 113.55999999999999 15.420000000000005 110.94 13.930000000000005 C 108.32000000000001 12.440000000000005 105.78999999999999 5.930000000000005 102.94 4.8700000000000045 C 100.09 3.810000000000004 94 7 91 6.31 C 88 5.619999999999999 83.75 0.21 80.75 0 C 77.75 -0.21 72.75 4.62 69.75 4.87 C 66.75 5.12 61 1.19 58.06 1.88 C 55.120000000000005 2.57 51.76 8.67 49 9.79 C 46.24 10.909999999999998 39.56 8.85 37 10.37 C 34.44 11.889999999999999 33 18.72 30.64 20.619999999999997 C 28.28 22.519999999999996 21.34 22.49 19.310000000000002 24.72 C 17.280000000000005 26.95 17.930000000000003 33.879999999999995 16.250000000000004 36.379999999999995 C 14.570000000000004 38.879999999999995 7.9200000000000035 40.919999999999995 6.630000000000004 43.63999999999999 C 5.340000000000005 46.35999999999999 8.010000000000005 52.809999999999995 7.140000000000004 55.63999999999999 C 6.270000000000003 58.46999999999999 0.5100000000000042 62.43999999999999 0.14000000000000412 65.41999999999999 C -0.22999999999999599 68.39999999999998 4.140000000000004 73.76999999999998 4.140000000000004 76.78999999999999 C 4.140000000000004 79.81 -0.27 85.29 0.2 88.26 C 0.67 91.23 6.5 95.06 7.41 97.93 C 8.32 100.80000000000001 5.76 107.28 7.08 110 C 8.4 112.72 15.08 114.63 16.810000000000002 117.11 C 18.540000000000006 119.59 17.980000000000004 126.53 20.050000000000004 128.72 C 22.120000000000005 130.91 29.050000000000004 130.79 31.440000000000005 132.65 C 33.540000000000006 134.3 34.99 139.83 37.11000000000001 142.09 L 17.59 188.76 L 44 177.39 L 53.43 200 L 75.55 149.85 L 75.7 149.94 L 99.7 200 L 109.56 174.43 L 134.47 184.08 L 112.47 137.77 C 115.4 136.66 121.47 137.45000000000002 123.68 135.68 C 126.02000000000001 133.78 126.41000000000001 126.83000000000001 128.44 124.61000000000001 C 130.46999999999997 122.39000000000001 137.35999999999999 121.36000000000001 139.03 118.86000000000001 C 140.70000000000002 116.36000000000001 139.03 109.60000000000001 140.32 106.86000000000001 C 141.60999999999999 104.12000000000002 147.89 101.13000000000001 148.75 98.24000000000001 C 149.61 95.35000000000001 146.06 89.4 146.48 86.41 Z M 76 140.9 C 49.845164409121566 140.92831925080077 26.249953479250642 125.19482009489988 16.221302431830416 101.03902607079617 C 6.192651384410183 76.88323204669246 11.706539217578836 49.06464086243102 30.190791163398245 30.560353338472737 C 48.67504310921766 12.056065814514454 76.48764455689638 6.512044239302639 100.65428883953098 16.51452047683759 C 124.82093312216558 26.51699671437254 140.57998466861454 50.095149077740615 140.57999999999998 76.24999999999999 C 140.55799635212566 111.91877037182837 111.66872560353261 140.83935497846414 75.99999999999999 140.9 Z" stroke-linecap="round" />
</g>
</g>
</g>
</g>
</g>
<g transform="matrix(1.9211538461538462 0 0 1.9211538461538462 641.1613374999998 697.90053010802)" id="text-logo"  >
<g style=""  paint-order="stroke"   >
		<g transform="matrix(1 0 0 1 0 0)" id="text-logo-path-0"  >
<path style="stroke: none; stroke-width: 0.6600396058812504; stroke-dasharray: none; stroke-linecap: butt; stroke-dashoffset: 0; stroke-linejoin: miter; stroke-miterlimit: 4; fill: rgb(206,155,80); fill-rule: nonzero; opacity: 1;"  paint-order="stroke"  transform=" translate(-231.62999999999997, 21.700000000000003)" d="M 2.48 -1.24 L 2.48 0 L 17.36 0 L 17.36 -1.24 C 15.5 -1.24 14.26 -1.74 14.26 -3.72 L 14.26 -20.46 C 14.26 -21.2 14.76 -21.7 15.5 -21.7 L 22.63 -21.7 C 24.61 -21.7 25.11 -20.46 25.11 -18.6 L 26.35 -18.6 L 26.35 -26.66 L 25.11 -26.66 C 25.11 -24.8 24.61 -23.56 22.63 -23.56 L 15.5 -23.56 C 14.76 -23.56 14.26 -24.06 14.26 -24.8 L 14.26 -40.3 C 14.26 -41.04 14.76 -41.54 15.5 -41.54 L 28.21 -41.54 C 30.19 -41.54 31 -39.49 31.5 -36.77 L 32.67 -36.95 L 31.81 -42.47 L 31.62 -43.4 L 2.48 -43.4 L 2.48 -42.16 C 4.34 -42.16 5.58 -41.66 5.58 -39.68 L 5.58 -3.72 C 5.58 -1.74 4.34 -1.24 2.48 -1.24 Z M 56.85 -1.24 L 56.85 0 L 71.42 0 L 71.42 -1.24 C 70.31 -1.24 68.88 -1.61 68.08 -3.41 L 51.09 -43.4 L 47.12 -43.4 L 47.12 -41.54 C 47.12 -40.8 46.93 -39.87 46.69 -39.12 L 32.49 -3.47 C 31.74 -1.61 30.01 -1.24 28.33 -1.24 L 28.33 0 L 37.01 0 L 37.01 -1.24 C 34.6 -1.24 33.6 -1.61 34.35 -3.47 L 38.44 -13.7 C 38.69 -14.45 39.37 -14.88 40.11 -14.88 L 53.38 -14.88 C 54.13 -14.88 54.81 -14.45 55.12 -13.76 L 59.46 -3.41 C 60.2 -1.61 59.27 -1.24 56.85 -1.24 Z M 40.05 -17.92 L 46.07 -32.8 C 46.31 -33.54 46.69 -33.54 47 -32.86 L 53.32 -17.86 C 53.63 -17.17 53.32 -16.74 52.58 -16.74 L 40.86 -16.74 C 40.11 -16.74 39.8 -17.17 40.05 -17.92 Z M 113.96 0.31 L 113.96 -1.55 C 107.38 -1.55 108.13 -14.32 97.59 -19.16 C 105.03 -19.59 110.24 -24.86 110.24 -31.43 C 110.24 -38.01 104.66 -43.4 96.66 -43.4 L 75.14 -43.4 L 75.14 -42.16 C 77 -42.16 78.24 -41.66 78.24 -39.68 L 78.24 -3.72 C 78.24 -1.74 77 -1.24 75.14 -1.24 L 75.14 0 L 90.02 0 L 90.02 -1.24 C 88.16 -1.24 86.92 -1.74 86.92 -3.72 L 86.92 -17.92 C 86.92 -18.66 87.42 -19.16 88.16 -19.16 L 88.16 -19.16 C 98.39 -19.16 94.49 0.31 113.96 0.31 Z M 90.83 -21.02 L 88.16 -21.02 C 87.42 -21.02 86.92 -21.51 86.92 -22.26 L 86.92 -40.3 C 86.92 -41.04 87.42 -41.54 88.16 -41.54 L 90.83 -41.54 C 99.39 -41.54 101.31 -36.7 101.31 -31.37 C 101.31 -25.85 99.39 -21.02 90.83 -21.02 Z M 123.19 -37.08 L 137.83 -6.2 L 142.17 -6.2 L 156.24 -39.37 C 156.55 -40.05 156.74 -39.99 156.74 -39.25 L 156.74 -3.72 C 156.74 -1.74 155.5 -1.24 153.64 -1.24 L 153.64 0 L 168.52 0 L 168.52 -1.24 C 166.66 -1.24 165.42 -1.74 165.42 -3.72 L 165.42 -39.68 C 165.42 -41.66 166.66 -42.16 168.52 -42.16 L 168.52 -43.4 L 156.12 -43.4 L 143.96 -14.76 C 143.65 -14.07 143.28 -14.07 142.91 -14.76 L 129.46 -43.4 L 117.68 -43.4 L 117.68 -42.16 C 119.54 -42.16 120.78 -41.66 120.78 -39.68 L 120.78 -3.72 C 120.78 -1.74 119.54 -1.24 117.68 -1.24 L 117.68 0 L 125.74 0 L 125.74 -1.24 C 123.88 -1.24 122.64 -1.74 122.64 -3.72 L 122.64 -36.95 C 122.64 -37.7 122.82 -37.76 123.19 -37.08 Z M 196.23 0.37 C 202.37 0.37 207.7 -2.42 211.92 -7.5 L 210.49 -8.87 C 206.46 -3.84 201.62 -1.49 196.23 -1.49 C 187.98 -1.49 182.4 -9.24 182.4 -21.7 C 182.4 -34.16 187.98 -41.91 196.85 -41.91 C 202.24 -41.91 208.82 -38.81 206.58 -37.01 C 205.78 -36.39 205.22 -35.4 205.22 -34.35 C 205.22 -32.43 206.65 -31 208.57 -31 C 210.37 -31 212.04 -32.61 211.79 -35.03 C 211.17 -39.37 204.29 -43.77 196.85 -43.77 C 184.14 -43.77 173.48 -35.22 173.48 -21.7 C 173.48 -8.18 184.14 0.37 196.23 0.37 Z M 239.63 0.37 C 251.72 0.37 262.32 -8.18 262.32 -21.7 C 262.32 -35.22 251.72 -43.77 239.63 -43.77 C 227.54 -43.77 216.88 -35.22 216.88 -21.7 C 216.88 -8.18 227.54 0.37 239.63 0.37 Z M 241.43 -1.49 C 233.18 -1.49 226.92 -9.24 225.8 -21.7 C 224.69 -34.16 229.59 -41.91 237.83 -41.91 C 246.08 -41.91 252.28 -34.16 253.39 -21.7 C 254.51 -9.24 249.67 -1.49 241.43 -1.49 Z M 265.42 -1.24 L 265.42 0 L 273.48 0 L 273.48 -1.24 C 271.62 -1.24 270.38 -1.74 270.38 -3.72 L 270.38 -35.65 C 270.38 -36.39 270.69 -36.52 271.13 -35.9 L 297.66 0 L 300.76 0 L 300.76 -39.68 C 300.76 -41.66 302 -42.16 303.86 -42.16 L 303.86 -43.4 L 295.8 -43.4 L 295.8 -42.16 C 297.66 -42.16 298.9 -41.66 298.9 -39.68 L 298.9 -13.45 C 298.9 -12.71 298.59 -12.59 298.16 -13.21 L 275.96 -43.4 L 265.42 -43.4 L 265.42 -42.16 C 267.28 -42.16 268.52 -41.66 268.52 -39.68 L 268.52 -3.72 C 268.52 -1.74 267.28 -1.24 265.42 -1.24 Z M 307.58 -1.24 L 307.58 0 L 315.64 0 L 315.64 -1.24 C 313.78 -1.24 312.54 -1.74 312.54 -3.72 L 312.54 -35.65 C 312.54 -36.39 312.85 -36.52 313.29 -35.9 L 339.82 0 L 342.92 0 L 342.92 -39.68 C 342.92 -41.66 344.16 -42.16 346.02 -42.16 L 346.02 -43.4 L 337.96 -43.4 L 337.96 -42.16 C 339.82 -42.16 341.06 -41.66 341.06 -39.68 L 341.06 -13.45 C 341.06 -12.71 340.75 -12.59 340.32 -13.21 L 318.12 -43.4 L 307.58 -43.4 L 307.58 -42.16 C 309.44 -42.16 310.68 -41.66 310.68 -39.68 L 310.68 -3.72 C 310.68 -1.74 309.44 -1.24 307.58 -1.24 Z M 350.36 -1.24 L 350.36 0 L 380.12 0 L 380.31 -0.93 L 381.18 -6.45 L 380 -6.63 C 379.5 -3.91 378.7 -1.86 376.71 -1.86 L 363.38 -1.86 C 362.64 -1.86 362.14 -2.36 362.14 -3.1 L 362.14 -20.46 C 362.14 -21.2 362.64 -21.7 363.38 -21.7 L 370.51 -21.7 C 372.5 -21.7 372.99 -20.46 372.99 -18.6 L 374.23 -18.6 L 374.23 -26.66 L 372.99 -26.66 C 372.99 -24.8 372.5 -23.56 370.51 -23.56 L 363.38 -23.56 C 362.64 -23.56 362.14 -24.06 362.14 -24.8 L 362.14 -40.3 C 362.14 -41.04 362.64 -41.54 363.38 -41.54 L 376.09 -41.54 C 378.08 -41.54 378.88 -39.49 379.38 -36.77 L 380.56 -36.95 L 379.69 -42.47 L 379.5 -43.4 L 350.36 -43.4 L 350.36 -42.16 C 352.22 -42.16 353.46 -41.66 353.46 -39.68 L 353.46 -3.72 C 353.46 -1.74 352.22 -1.24 350.36 -1.24 Z M 407.65 0.37 C 413.79 0.37 419.12 -2.42 423.34 -7.5 L 421.91 -8.87 C 417.88 -3.84 413.04 -1.49 407.65 -1.49 C 399.4 -1.49 393.82 -9.24 393.82 -21.7 C 393.82 -34.16 399.4 -41.91 408.27 -41.91 C 413.66 -41.91 420.24 -38.81 418 -37.01 C 417.2 -36.39 416.64 -35.4 416.64 -34.35 C 416.64 -32.43 418.07 -31 419.99 -31 C 421.79 -31 423.46 -32.61 423.21 -35.03 C 422.59 -39.37 415.71 -43.77 408.27 -43.77 C 395.56 -43.77 384.9 -35.22 384.9 -21.7 C 384.9 -8.18 395.56 0.37 407.65 0.37 Z M 436.48 0 L 451.36 0 L 451.36 -1.24 C 449.5 -1.24 448.26 -1.74 448.26 -3.72 L 448.26 -42.78 C 448.26 -42.04 448.76 -41.54 449.5 -41.54 L 456.32 -41.54 C 458.3 -41.54 459.11 -39.49 459.61 -36.77 L 460.78 -36.95 L 459.92 -42.47 L 459.73 -43.4 L 428.11 -43.4 L 427.92 -42.47 L 427.06 -36.95 L 428.23 -36.77 C 428.73 -39.49 429.54 -41.54 431.52 -41.54 L 438.34 -41.54 C 439.08 -41.54 439.58 -42.04 439.58 -42.78 L 439.58 -3.72 C 439.58 -1.74 438.34 -1.24 436.48 -1.24 Z" stroke-linecap="round" />
</g>
</g>
</g>
<g transform="matrix(1.9211538461538462 0 0 1.9211538461538462 639.9644586538462 354.6473357259103)" id="tagline-5c1db6ff-515a-40af-bb9d-9bce8b71dea7-logo"  >
<g style=""  paint-order="stroke"   >
		<g transform="matrix(1 0 0 1 0 0)" id="tagline-5c1db6ff-515a-40af-bb9d-9bce8b71dea7-logo-path-0"  >
<path style="stroke: rgb(135,19,17); stroke-width: 0; stroke-dasharray: none; stroke-linecap: butt; stroke-dashoffset: 0; stroke-linejoin: miter; stroke-miterlimit: 4; fill: rgb(36,34,35); fill-rule: nonzero; opacity: 1;"  paint-order="stroke"  transform=" translate(-20.98, 25.9)" d="M 2.96 -1.48 L 2.96 0 L 20.72 0 L 20.72 -1.48 C 18.5 -1.48 17.02 -2.07 17.02 -4.44 L 17.02 -24.42 C 17.02 -25.31 17.61 -25.9 18.5 -25.9 L 27.01 -25.9 C 29.38 -25.9 29.97 -24.42 29.97 -22.2 L 31.45 -22.2 L 31.45 -31.82 L 29.97 -31.82 C 29.97 -29.6 29.38 -28.12 27.01 -28.12 L 18.5 -28.12 C 17.61 -28.12 17.02 -28.71 17.02 -29.6 L 17.02 -48.1 C 17.02 -48.99 17.61 -49.58 18.5 -49.58 L 33.67 -49.58 C 36.04 -49.58 37 -47.14 37.59 -43.88 L 39 -44.1 L 37.96 -50.69 L 37.74 -51.8 L 2.96 -51.8 L 2.96 -50.32 C 5.18 -50.32 6.66 -49.73 6.66 -47.36 L 6.66 -4.44 C 6.66 -2.07 5.18 -1.48 2.96 -1.48 Z" stroke-linecap="round" />
</g>
</g>
</g>
<g transform="matrix(1.9211538461538462 0 0 1.9211538461538462 640.2397238479881 786.7120498766313)" id="tagline-11a039c4-705c-4b18-bbac-07e2a217022b-logo"  >
<g style=""  paint-order="stroke"   >
		<g transform="matrix(1 0 0 1 0 0)" id="tagline-11a039c4-705c-4b18-bbac-07e2a217022b-logo-path-0"  >
<filter id="SVGID_213783" y="-688.364099299809%" height="1476.728198599618%" x="-45.56664536112887%" width="191.13329072225775%" >
	<feGaussianBlur in="SourceAlpha" stdDeviation="18.5"></feGaussianBlur>
	<feOffset dx="67" dy="68" result="oBlur" ></feOffset>
	<feFlood flood-color="rgb(0,0,0)" flood-opacity="1"/>
	<feComposite in2="oBlur" operator="in" />
	<feMerge>
		<feMergeNode></feMergeNode>
		<feMergeNode in="SourceGraphic"></feMergeNode>
	</feMerge>
</filter>
<path style="stroke: rgb(255,255,255); stroke-width: 0; stroke-dasharray: none; stroke-linecap: butt; stroke-dashoffset: 0; stroke-linejoin: miter; stroke-miterlimit: 4; fill: rgb(206,155,80); fill-rule: nonzero; opacity: 1;filter: url(#SVGID_213783);"  paint-order="stroke"  transform=" translate(-203.86999999999998, 7.555)" d="M 8.16 0.2 C 9.96 0.2 11.78 -0.67 13.06 -2.13 L 11.63 -3.36 C 11.98 -2.67 12.28 -2.06 11.22 -1.13 C 10.29 -0.54 9.22 -0.24 8.16 -0.24 C 4.75 -0.24 2.76 -3.36 2.76 -7.62 C 2.76 -12 4.88 -14.97 7.94 -14.97 C 8.77 -14.97 9.55 -14.84 10.24 -14.58 C 11.11 -14.11 10.85 -13.48 10.59 -12.78 L 11.5 -13.98 L 11.72 -14.28 C 10.66 -15 9.37 -15.41 7.94 -15.41 C 3.58 -15.41 0.48 -12.26 0.48 -7.62 C 0.48 -3.12 3.39 0.2 8.16 0.2 Z M 24 0.2 C 28.12 0.2 31.23 -2.97 31.23 -7.62 C 31.23 -12.09 28.32 -15.41 24 -15.41 C 19.86 -15.41 16.75 -12.26 16.75 -7.62 C 16.75 -3.12 19.66 0.2 24 0.2 Z M 24 -0.24 C 21.03 -0.24 19.03 -3.36 19.03 -7.62 C 19.03 -12 21.16 -14.97 24 -14.97 C 26.95 -14.97 28.95 -11.85 28.95 -7.62 C 28.95 -3.23 26.82 -0.24 24 -0.24 Z M 46.55 0 L 47.42 0 L 47.42 -13.22 C 47.42 -14.63 48.13 -14.89 48.85 -15.19 L 45.55 -15.19 C 46.27 -14.89 46.98 -14.63 46.98 -13.22 L 46.98 -3.32 L 39.17 -15.19 L 35.57 -15.19 C 36.28 -14.89 37 -14.63 37 -13.22 L 37 -1.97 C 37 -0.56 36.28 -0.3 35.57 0 L 38.87 0 C 38.15 -0.3 37.43 -0.56 37.43 -1.97 L 37.43 -13.87 Z M 64.17 0 L 65.04 0 L 65.04 -13.22 C 65.04 -14.63 65.75 -14.89 66.47 -15.19 L 63.17 -15.19 C 63.89 -14.89 64.6 -14.63 64.6 -13.22 L 64.6 -3.32 L 56.79 -15.19 L 53.19 -15.19 C 53.91 -14.89 54.62 -14.63 54.62 -13.22 L 54.62 -1.97 C 54.62 -0.56 53.91 -0.3 53.19 0 L 56.49 0 C 55.77 -0.3 55.06 -0.56 55.06 -1.97 L 55.06 -13.87 Z M 70.81 0 L 81.21 0 L 82.44 -2.47 C 81.51 -1.67 80.51 -0.43 78.25 -0.43 L 74.41 -0.43 L 74.41 -7.38 L 77.28 -7.38 C 78.69 -7.38 78.95 -6.66 79.25 -5.95 L 79.25 -9.24 C 78.95 -8.53 78.69 -7.81 77.28 -7.81 L 74.41 -7.81 L 74.41 -14.76 L 78.47 -14.76 C 80.58 -14.76 80.97 -13.69 81.42 -12.61 L 81.42 -15.19 L 70.81 -15.19 C 71.53 -14.89 72.24 -14.63 72.24 -13.22 L 72.24 -1.97 C 72.24 -0.56 71.53 -0.3 70.81 0 Z M 93.6 0.2 C 95.4 0.2 97.22 -0.67 98.5 -2.13 L 97.07 -3.36 C 97.42 -2.67 97.72 -2.06 96.66 -1.13 C 95.72 -0.54 94.66 -0.24 93.6 -0.24 C 90.19 -0.24 88.19 -3.36 88.19 -7.62 C 88.19 -12 90.32 -14.97 93.38 -14.97 C 94.2 -14.97 94.99 -14.84 95.68 -14.58 C 96.55 -14.11 96.29 -13.48 96.03 -12.78 L 96.94 -13.98 L 97.16 -14.28 C 96.09 -15 94.81 -15.41 93.38 -15.41 C 89.02 -15.41 85.91 -12.26 85.91 -7.62 C 85.91 -3.12 88.82 0.2 93.6 0.2 Z M 105.6 0 L 110.63 0 C 109.92 -0.3 109.2 -0.56 109.2 -1.97 L 109.2 -14.76 L 111.09 -14.76 C 113.19 -14.76 113.58 -13.69 114.04 -12.61 L 114.04 -15.19 L 102.19 -15.19 L 102.19 -12.61 C 102.65 -13.69 103.04 -14.76 105.16 -14.76 L 107.03 -14.76 L 107.03 -1.97 C 107.03 -0.56 106.31 -0.3 105.6 0 Z M 118.38 0 L 123.41 0 C 122.7 -0.3 121.98 -0.56 121.98 -1.97 L 121.98 -13.22 C 121.98 -14.63 122.7 -14.89 123.41 -15.19 L 118.38 -15.19 C 119.1 -14.89 119.81 -14.63 119.81 -13.22 L 119.81 -1.97 C 119.81 -0.56 119.1 -0.3 118.38 0 Z M 138.73 0 L 139.6 0 L 139.6 -13.22 C 139.6 -14.63 140.32 -14.89 141.04 -15.19 L 137.74 -15.19 C 138.45 -14.89 139.17 -14.63 139.17 -13.22 L 139.17 -3.32 L 131.36 -15.19 L 127.75 -15.19 C 128.47 -14.89 129.19 -14.63 129.19 -13.22 L 129.19 -1.97 C 129.19 -0.56 128.47 -0.3 127.75 0 L 131.05 0 C 130.34 -0.3 129.62 -0.56 129.62 -1.97 L 129.62 -13.87 Z M 153.06 0.2 C 154.27 0.2 155.51 -0.22 156.55 -0.91 C 156.94 -0.35 157.55 -0.02 158.24 0 L 159.74 0.02 C 159.03 -0.3 158.31 -0.56 158.31 -1.97 L 158.31 -7.38 L 153.99 -7.38 C 155.08 -6.92 156.14 -6.53 156.14 -4.43 L 156.14 -2.91 C 155.97 -1.04 154.62 -0.24 153.06 -0.24 C 149.65 -0.24 147.65 -3.36 147.65 -7.62 C 147.65 -12 149.78 -14.97 152.84 -14.97 C 153.67 -14.97 154.45 -14.84 155.14 -14.58 C 156.01 -14.11 155.75 -13.48 155.49 -12.78 L 156.4 -13.98 L 156.62 -14.28 C 155.55 -15 154.27 -15.41 152.84 -15.41 C 148.48 -15.41 145.38 -12.26 145.38 -7.62 C 145.38 -3.12 148.28 0.2 153.06 0.2 Z M 171.81 0 L 176.84 0 C 176.13 -0.3 175.41 -0.56 175.41 -1.97 L 175.41 -7.38 L 178.27 -7.38 C 179.68 -7.38 179.95 -6.66 180.25 -5.95 L 180.25 -9.24 C 179.95 -8.53 179.68 -7.81 178.27 -7.81 L 175.41 -7.81 L 175.41 -14.76 L 179.47 -14.76 C 181.57 -14.76 181.96 -13.69 182.42 -12.61 L 182.42 -15.19 L 171.81 -15.19 C 172.52 -14.89 173.24 -14.63 173.24 -13.22 L 173.24 -1.97 C 173.24 -0.56 172.52 -0.3 171.81 0 Z M 197.48 0 L 199.28 0 C 198.56 -0.3 197.63 -0.52 197.13 -1.84 L 191.88 -15.19 L 189.47 -15.19 C 190.41 -14.76 191.08 -14.43 190.45 -12.56 L 186.87 -1.87 C 186.41 -0.54 185.52 -0.3 184.81 0 L 188.1 0 C 187.39 -0.3 186.85 -0.54 187.3 -1.87 L 188.43 -5.21 L 193.53 -5.21 L 194.88 -1.78 C 195.35 -0.54 196.18 0 197.48 0 Z M 188.56 -5.64 L 190.77 -12.22 L 193.36 -5.64 Z M 211.22 0 L 216.47 0 C 215.75 -0.3 214.73 -0.48 213.95 -1.65 L 210.76 -6.42 C 212.84 -7.4 214.49 -8.72 214.49 -11.02 C 214.47 -13.3 212.35 -15.19 208.92 -15.19 L 203.62 -15.19 C 204.34 -14.89 205.05 -14.63 205.05 -13.22 L 205.05 -1.97 C 205.05 -0.56 204.34 -0.3 203.62 0 L 208.66 0 C 207.94 -0.3 207.22 -0.56 207.22 -1.97 L 207.22 -5.03 L 208.85 -5.62 L 211.54 -1.63 C 212.32 -0.48 211.93 -0.3 211.22 0 Z M 207.22 -5.71 L 207.22 -14.76 L 208.92 -14.76 C 210.93 -14.76 212.21 -13.32 212.21 -11.02 C 212.19 -7.64 209.81 -6.64 207.22 -5.71 Z M 228.06 0 L 228.75 0 L 233.96 -14.69 L 233.96 -1.97 C 233.96 -0.56 233.24 -0.3 232.53 0 L 237.56 0 C 236.85 -0.3 236.13 -0.56 236.13 -1.97 L 236.13 -13.22 C 236.13 -14.63 236.85 -14.89 237.56 -15.19 L 233.7 -15.19 L 229.23 -2.58 L 223.98 -15.19 L 220.81 -15.19 C 221.52 -14.89 222.24 -14.63 222.24 -13.22 L 222.24 -1.97 C 222.24 -0.56 221.52 -0.3 220.81 0 L 224.11 0 C 223.39 -0.3 222.67 -0.56 222.67 -1.97 L 222.67 -13.09 Z M 241.9 0 L 252.3 0 L 253.53 -2.47 C 252.6 -1.67 251.6 -0.43 249.35 -0.43 L 245.5 -0.43 L 245.5 -7.38 L 248.37 -7.38 C 249.78 -7.38 250.04 -6.66 250.34 -5.95 L 250.34 -9.24 C 250.04 -8.53 249.78 -7.81 248.37 -7.81 L 245.5 -7.81 L 245.5 -14.76 L 249.56 -14.76 C 251.67 -14.76 252.06 -13.69 252.51 -12.61 L 252.51 -15.19 L 241.9 -15.19 C 242.62 -14.89 243.33 -14.63 243.33 -13.22 L 243.33 -1.97 C 243.33 -0.56 242.62 -0.3 241.9 0 Z M 265.47 0 L 270.72 0 C 270 -0.3 268.98 -0.48 268.2 -1.65 L 265.01 -6.42 C 267.1 -7.4 268.75 -8.72 268.75 -11.02 C 268.72 -13.3 266.6 -15.19 263.17 -15.19 L 257.87 -15.19 C 258.59 -14.89 259.31 -14.63 259.31 -13.22 L 259.31 -1.97 C 259.31 -0.56 258.59 -0.3 257.87 0 L 262.91 0 C 262.19 -0.3 261.48 -0.56 261.48 -1.97 L 261.48 -5.03 L 263.1 -5.62 L 265.79 -1.63 C 266.58 -0.48 266.19 -0.3 265.47 0 Z M 261.48 -5.71 L 261.48 -14.76 L 263.17 -14.76 C 265.19 -14.76 266.47 -13.32 266.47 -11.02 C 266.45 -7.64 264.06 -6.64 261.48 -5.71 Z M 286.19 0 L 291.23 0 C 290.51 -0.3 289.8 -0.56 289.8 -1.97 L 289.8 -14.76 L 291.68 -14.76 C 293.79 -14.76 294.18 -13.69 294.64 -12.61 L 294.64 -15.19 L 282.79 -15.19 L 282.79 -12.61 C 283.24 -13.69 283.63 -14.76 285.76 -14.76 L 287.63 -14.76 L 287.63 -1.97 C 287.63 -0.56 286.91 -0.3 286.19 0 Z M 306.01 0.2 C 310.13 0.2 313.23 -2.97 313.23 -7.62 C 313.23 -12.09 310.33 -15.41 306.01 -15.41 C 301.86 -15.41 298.76 -12.26 298.76 -7.62 C 298.76 -3.12 301.67 0.2 306.01 0.2 Z M 306.01 -0.24 C 303.03 -0.24 301.04 -3.36 301.04 -7.62 C 301.04 -12 303.16 -14.97 306.01 -14.97 C 308.96 -14.97 310.95 -11.85 310.95 -7.62 C 310.95 -3.23 308.83 -0.24 306.01 -0.24 Z M 325.3 0 L 331.9 0 C 335.22 0 337.47 -1.82 337.47 -4.1 C 337.47 -5.56 336.26 -6.9 333.52 -7.77 C 335.04 -8.59 336.17 -9.72 336.17 -11.39 C 336.17 -13.45 333.91 -15.19 330.59 -15.19 L 325.3 -15.19 C 326.02 -14.89 326.73 -14.63 326.73 -13.22 L 326.73 -1.97 C 326.73 -0.56 326.02 -0.3 325.3 0 Z M 331.9 -0.43 L 328.9 -0.43 L 328.9 -5.97 C 330.18 -6.4 331.55 -6.84 332.74 -7.38 C 334.28 -6.86 335.19 -5.79 335.19 -4.1 C 335.19 -1.93 333.96 -0.43 331.9 -0.43 Z M 328.9 -6.6 L 328.9 -14.76 L 330.59 -14.76 C 332.81 -14.76 333.89 -13.35 333.89 -11.39 C 333.89 -8.31 331.55 -7.47 328.9 -6.6 Z M 343.25 -13.22 L 343.25 -4.73 C 343.25 -1.78 345.24 0.3 349.15 0.3 C 352.25 0.3 354.1 -1.45 354.1 -4.73 L 354.1 -13.22 C 354.1 -14.63 354.81 -14.89 355.53 -15.19 L 352.23 -15.19 C 352.95 -14.89 353.66 -14.63 353.66 -13.22 L 353.66 -4.73 C 353.66 -1.71 351.99 -0.13 349.15 -0.13 C 346.72 -0.13 345.42 -1.74 345.42 -4.73 L 345.42 -13.22 C 345.42 -14.63 346.13 -14.89 346.85 -15.19 L 341.81 -15.19 C 342.53 -14.89 343.25 -14.63 343.25 -13.22 Z M 362.19 -13.43 L 365.86 -6.14 L 365.86 -1.97 C 365.86 -0.56 365.14 -0.3 364.43 0 L 369.46 0 C 368.74 -0.3 368.03 -0.56 368.03 -1.97 L 368.03 -5.97 L 371.78 -13.43 C 372.41 -14.69 373.39 -14.89 374.1 -15.19 L 370.7 -15.19 C 371.41 -14.89 371.87 -14.69 371.24 -13.43 L 367.9 -6.75 L 364.51 -13.54 C 363.95 -14.69 363.12 -15.19 361.84 -15.19 L 359.87 -15.19 C 360.59 -14.89 361.56 -14.69 362.19 -13.43 Z M 378.45 0 L 388.84 0 L 390.08 -2.47 C 389.14 -1.67 388.15 -0.43 385.89 -0.43 L 382.05 -0.43 L 382.05 -7.38 L 384.91 -7.38 C 386.32 -7.38 386.58 -6.66 386.89 -5.95 L 386.89 -9.24 C 386.58 -8.53 386.32 -7.81 384.91 -7.81 L 382.05 -7.81 L 382.05 -14.76 L 386.11 -14.76 C 388.21 -14.76 388.6 -13.69 389.06 -12.61 L 389.06 -15.19 L 378.45 -15.19 C 379.16 -14.89 379.88 -14.63 379.88 -13.22 L 379.88 -1.97 C 379.88 -0.56 379.16 -0.3 378.45 0 Z M 402.01 0 L 407.26 0 C 406.55 -0.3 405.53 -0.48 404.75 -1.65 L 401.56 -6.42 C 403.64 -7.4 405.29 -8.72 405.29 -11.02 C 405.27 -13.3 403.14 -15.19 399.71 -15.19 L 394.42 -15.19 C 395.13 -14.89 395.85 -14.63 395.85 -13.22 L 395.85 -1.97 C 395.85 -0.56 395.13 -0.3 394.42 0 L 399.45 0 C 398.74 -0.3 398.02 -0.56 398.02 -1.97 L 398.02 -5.03 L 399.65 -5.62 L 402.34 -1.63 C 403.12 -0.48 402.73 -0.3 402.01 0 Z M 398.02 -5.71 L 398.02 -14.76 L 399.71 -14.76 C 401.73 -14.76 403.01 -13.32 403.01 -11.02 C 402.99 -7.64 400.6 -6.64 398.02 -5.71 Z" stroke-linecap="round" />
</g>
</g>
</g>
</svg>